<?xml version="1.0" encoding="UTF-8" standalone="no"?>
<svg width="142px" height="63px" viewBox="0 0 142 63" version="1.1" xmlns="http://www.w3.org/2000/svg" xmlns:xlink="http://www.w3.org/1999/xlink" xmlns:sketch="http://www.bohemiancoding.com/sketch/ns">
    <!-- Generator: Sketch 3.3.3 (12081) - http://www.bohemiancoding.com/sketch -->
    <title>logo-zaki</title>
    <desc>Created with Sketch.</desc>
    <defs></defs>
    <g id="option-1" stroke="none" stroke-width="1" fill="none" fill-rule="evenodd" sketch:type="MSPage">
        <g id="02-home-desktop" sketch:type="MSArtboardGroup" transform="translate(-487.000000, -148.000000)" fill="#000000">
            <g id="logo-zaki" sketch:type="MSLayerGroup" transform="translate(487.000000, 148.000000)">
                <path d="M58.4229612,18.2782821 C60.4057912,17.0828641 62.3592041,15.9561461 64.2512501,14.7337947 C64.8130974,14.370778 65.136296,13.6476721 65.6848958,13.2503054 C66.8128763,12.4337129 67.9626761,11.6098992 69.2059873,10.9986259 C71.2560285,9.99057139 73.2945757,8.99930155 75.1831151,7.68482972 C76.586954,6.70780731 77.6046691,6.94728124 78.560238,8.16592446 C79.1799455,8.95597375 79.0287688,9.79208322 78.4910786,10.7437335 C77.7856525,11.9918474 77.2838083,13.3555022 76.7007261,14.672316 C76.4385048,15.2644627 76.1486196,15.8497783 75.9553629,16.4645647 C75.855033,16.7836681 75.9378295,17.1603467 75.9378295,17.6914051 C78.506469,16.8445612 80.9627001,16.3361427 83.03534,14.8311846 C83.2449612,14.6789518 83.4534136,14.4732424 83.6910882,14.4197657 C85.9458803,13.9109568 88.0487165,12.9372523 90.2497396,12.2830415 C91.9787253,11.7691581 93.8832395,13.9544798 93.2845722,15.6561694 C93.172943,15.9733211 92.7893517,16.2346541 92.4755043,16.4325568 C91.6555267,16.9493677 90.7880143,17.3916235 89.9768034,17.9213157 C89.7607533,18.0622286 89.5334038,18.4406638 89.576458,18.6567173 C89.6237981,18.8926781 89.9584908,19.2104154 90.2033736,19.245546 C92.9529965,19.6419368 95.7100225,20.0033922 98.5878339,19.0376897 C99.0649365,19.3835314 99.649772,19.7748478 100.197593,20.2128099 C100.874771,20.7542123 101.467009,21.3241095 100.944125,22.3350915 C100.564819,23.0687366 99.4845686,23.8964537 98.7193342,23.8330234 C98.0764437,23.7797419 97.444463,23.6068211 96.8025466,23.5295336 C94.9011494,23.3007941 93.0143634,22.8337516 91.0749772,23.2883032 C90.312665,23.4670791 89.5460668,23.4661033 88.8702526,22.8784456 C88.699984,22.7303113 88.2793778,22.7865204 88.0029349,22.8595141 C85.6552159,23.4787893 84.2644296,22.7919851 83.4436728,20.5769976 C82.7875349,18.8069984 82.393034,18.7375178 80.922763,19.9264951 C79.3215762,21.2210596 77.6494766,22.4272119 76.0192623,23.6860602 C75.6652829,23.9592986 75.309745,24.2549815 75.0377829,24.6049219 C74.3865154,25.4423975 73.5501733,25.5370551 72.6064881,25.3274422 C71.6583221,25.1168535 71.3263569,24.4679123 71.0896563,23.5627126 C70.5671617,21.5635834 70.6778168,19.6792144 71.4677928,17.7624471 C72.1052284,16.2161129 72.5484331,14.5895638 73.1268397,12.8511822 C72.8480591,12.7608183 72.4307647,12.4725518 72.2168575,12.5822375 C71.1428409,13.1337887 70.0896694,13.741549 69.0945529,14.4254256 C68.4635462,14.8592892 67.9702739,15.4889085 67.3731651,15.9793714 C66.5999432,16.6146507 65.7571723,17.1662019 64.9956393,17.8143624 C64.2878754,18.4166578 63.6054375,19.0611101 62.9890419,19.7557211 C62.340307,20.4866338 61.1519337,19.6251522 60.6241791,20.64843 C60.4558587,20.9747547 59.9748598,21.2062266 59.9337538,21.5200604 C59.767966,22.7886672 58.7948636,22.9834472 57.8535161,23.2201887 C57.3555683,23.345488 56.8336581,23.3952565 56.3193458,23.4303871 C54.4255464,23.5599802 53.546345,22.9155279 53.2665902,21.0065674 C53.1300247,20.0750197 53.227822,19.1019007 53.2829547,18.1514214 C53.3334119,17.2825233 52.9435865,16.9481967 52.1428957,17.3529798 C51.4604577,17.6978457 50.8200999,18.1401015 50.2013665,18.5942628 C49.1844307,19.3407891 48.2843841,20.2932201 47.1842622,20.8699482 C44.9777843,22.0265273 43.1422347,20.9341593 42.201082,18.5415668 C42.0393853,18.1309285 42.0222416,17.6638861 41.9277562,17.2249481 C41.9164569,17.172057 41.8395048,17.1332181 41.6974845,16.9950375 C40.5124231,17.0893048 39.1148183,16.4388022 38.0587246,17.7411735 C36.2578521,17.607677 34.7595277,18.6309548 33.1078837,19.0671604 C30.2468264,19.8230549 27.423953,20.7249367 24.5854942,21.5672916 C24.3372996,21.641066 24.0343618,21.6611685 23.8557162,21.8188661 C22.5993524,22.9280188 20.9562803,23.0948894 19.4713982,23.6122858 C16.6985922,24.5785739 13.9121492,25.5458378 11.0664823,26.249817 C8.91007191,26.7832173 6.76710376,27.3291086 4.64127937,27.9719995 C4.21716649,28.1002264 3.58089977,27.757117 3.12659052,27.4883676 C2.63351303,27.1967832 2.20336088,26.7715071 1.80827548,26.3460359 C0.880954722,25.3475448 0.863616162,24.3824277 1.56709416,23.1778368 C2.6471501,21.328208 4.05488536,19.802562 5.65392922,18.3770383 C7.10919941,17.0795463 8.32231419,15.5094014 9.77933771,13.9090051 C8.33556163,13.2992931 7.15770841,13.5293989 5.97167295,13.642988 C4.96389348,13.7395973 3.92104726,13.876802 2.9364508,13.7226175 C0.75003885,13.3802888 0.0506519743,12.3531076 0.179424878,10.0409253 C1.76229907,10.0409253 3.34536809,10.0284344 4.92824228,10.0444384 C6.50079127,10.0604424 8.07470396,10.1570516 9.64433072,10.105917 C10.1171474,10.0906937 10.5776908,9.70035319 11.1093417,9.45092557 C11.9199681,9.63184842 12.5936393,10.9925756 13.5472602,9.8178457 C14.4282149,10.3641273 14.3206768,11.4188275 15.1714352,11.94891 C15.7048394,12.281285 15.7749729,13.3332528 15.1297447,14.0268879 C13.8640298,15.3872248 12.6287061,16.7776178 11.3257815,18.1012627 C10.3774206,19.0648183 9.30009211,19.9013181 8.35660168,20.8691676 C7.62955103,21.6149132 7.02133771,22.4767851 6.47663417,23.4477573 C7.81852186,23.2123819 9.19235926,23.4631757 10.301053,22.5552436 C10.4459956,22.4365801 10.6339924,22.3335302 10.8155602,22.3023029 C13.2353609,21.885224 15.5053486,21.0137887 17.7416333,20.0365711 C19.4491892,20.5065412 20.5528178,18.9194165 22.1440691,18.7560589 C23.6351853,18.6030454 25.0423361,17.7556161 26.5235167,17.3500523 C28.5647913,16.7912798 30.6508733,16.3987923 32.698382,15.8607079 C33.9313679,15.5367252 35.1006493,14.8891502 36.345519,14.7052998 C39.5539319,14.2308409 42.5147346,12.8098061 45.6923667,12.3253934 C47.737148,12.0135113 49.3856749,10.8774251 51.2444076,10.1968664 C53.194119,9.4829335 54.7955006,10.0075512 55.8280216,11.8380533 C56.0358895,12.2067299 56.3429184,12.5715032 56.6941704,12.798291 C58.6181661,14.0417209 58.9633788,14.9434076 58.1640517,17.0248986 C57.9491704,17.5844518 57.9012459,18.0255366 58.4229612,18.2782821" id="Fill-1" sketch:type="MSShapeGroup"></path>
                <path d="M130.948991,58.5302004 C130.39591,60.085122 128.935769,59.9233258 127.646482,60.0642388 C127.033203,59.2035378 126.515969,58.3182454 125.833726,57.5877231 C125.496306,57.2266581 124.814452,56.9110677 124.358389,56.9885503 C122.721746,57.2662776 121.083155,57.6228537 119.506904,58.138884 C118.249372,58.5506933 117.042686,58.242129 116.422394,57.0724736 C115.565207,55.4554878 115.618976,53.6735832 115.990099,52.0427403 C116.349533,50.4620562 116.503632,48.7063044 117.844935,47.4310618 C118.223851,47.0707775 118.21411,46.3004404 118.370352,45.7609897 C118.084753,45.6288594 118.001177,45.5628919 117.973513,45.5812379 C116.224851,46.7426962 114.04331,46.9009793 112.290167,48.0349186 C111.650199,48.44907 111.102378,49.0045246 110.470592,49.4333137 C109.725229,49.9393902 108.987463,50.5729129 108.151121,50.802238 C106.788583,51.1755988 105.867886,52.2308845 104.651265,52.7599911 C102.248998,53.8045424 99.7816619,54.698032 97.3653679,55.7119415 C96.8041051,55.9473169 96.3402499,56.4151401 95.5709243,56.9610313 C95.6585912,56.4274358 95.7002817,56.1735193 95.7589211,55.8159673 C95.2257117,55.6284087 94.8534197,55.6996458 94.5818471,56.2835953 C94.3809926,56.7157023 94.1744884,57.3187785 93.8127164,57.4723775 C92.2329592,58.1429825 90.6296294,58.8200282 88.9690239,59.2189563 C87.4377758,59.5866571 85.8529535,59.6491116 84.5328851,58.3387383 C83.7224535,57.5344416 82.7244148,56.9196552 81.7943666,56.2072837 C81.8288489,54.8887133 82.6007071,54.1052998 83.6560215,53.3197394 C84.7730923,52.4881189 85.8258741,51.4215133 86.5381188,50.2354635 C87.1880226,49.1532443 88.1531375,48.5933008 89.0676005,47.93909 C89.9062803,47.3391366 90.5353388,47.6149122 91.1328373,48.5411903 C91.4383077,49.0148686 91.7716366,49.470396 92.1123686,49.9630058 C91.5760421,51.0561546 91.1316684,52.1936069 89.9501137,52.9551614 C89.2639743,53.3974172 88.9098001,54.3568743 88.3019764,55.2341647 C88.852914,55.4260171 89.2306609,55.7058913 89.5193771,55.6330928 C90.9859466,55.2624644 92.2674415,54.3305263 93.9114877,54.4109365 C94.4863877,54.439041 95.0644046,53.7018828 95.693658,53.4428919 C98.0174147,52.4865575 100.370783,51.6030217 102.695514,50.6492245 C103.347561,50.3816461 103.942916,49.9729595 104.557364,49.6167737 C104.780817,49.4873759 104.965112,49.2416565 105.199475,49.1870088 C107.868055,48.5655866 109.892965,46.6654088 112.338676,45.60661 C112.516348,45.5295178 112.689344,45.4241258 112.875392,45.3868483 C116.213162,44.7168287 119.028633,42.9284835 121.812349,41.1541905 C123.34574,42.0511931 123.032087,42.0531448 123.041828,43.6629092 C123.055854,45.98485 121.619287,47.4158385 120.452733,49.0240416 C119.572168,50.2383911 119.08435,51.5101206 119.111235,52.9778011 C119.128963,53.9380389 119.530867,54.2372349 120.469487,54.0689981 C122.110806,53.7748765 123.744137,53.4354754 125.387793,53.1556012 C126.867416,52.9038316 127.86487,53.7670697 128.642183,54.8282105 C129.453004,55.9346308 130.104856,57.1579581 130.948991,58.5302004" id="Fill-2" sketch:type="MSShapeGroup"></path>
                <path d="M18.4322534,55.2987661 C18.6251206,54.4275259 19.2107353,53.0701167 20.3529373,52.1651121 C21.5089713,51.2489828 22.874042,50.593601 24.1643036,49.8533201 C25.0140879,49.3659799 25.8839381,48.9114284 26.7619706,48.4771745 C27.613703,48.055997 28.4658251,47.6188156 29.3576895,47.3008832 C30.2057204,46.9987596 31.0960263,46.7177144 31.984384,46.651942 C33.1382749,46.5666526 34.090532,47.0327193 34.720175,48.1233308 C35.2800742,49.0931319 35.4185878,49.8589801 34.785633,50.9597404 C34.1070913,52.1399351 33.8450648,53.5797063 33.5162166,54.9343832 C33.335428,55.6791529 34.1133254,56.2424144 34.8810925,56.0283126 C35.066167,55.9767876 35.2492934,55.8955968 35.4137175,55.7958648 C36.896067,54.8982767 38.3951706,54.0262559 39.848103,53.0828027 C41.7272912,51.8627933 43.5466712,50.548907 45.4461202,49.362662 C45.795424,49.1444617 46.4576012,49.2065258 46.8772333,49.3790563 C47.4192094,49.6019408 47.3718693,50.1002105 47.2312127,50.6950895 C47.053736,51.4472758 46.7359922,51.9937526 46.12135,52.4121976 C45.030774,53.1548206 43.9333795,53.8880753 42.8622851,54.658022 C42.3090097,55.0555839 41.6244288,55.4217233 41.3136984,55.978349 C40.2961781,57.8010442 38.2874377,58.204266 36.7407992,59.1805077 C35.3681307,60.0470638 33.4797861,60.5086415 31.8550266,59.4330581 C31.2347348,59.022615 30.7864648,58.2458373 30.4430054,57.5457615 C29.9131079,56.4651037 29.1476786,56.6663242 28.3323766,56.9877697 C27.977618,57.1277067 27.6343535,57.3521526 27.3512869,57.6103628 C26.1204439,58.7339581 24.5075681,58.921712 23.0189845,59.3741167 C20.8403652,60.0363294 18.2234115,58.5124399 18.4322534,55.2987661 L18.4322534,55.2987661 Z M23.267374,55.0112802 C23.9129919,55.8265065 24.4703584,55.5444854 24.9612929,55.2696857 C26.0606356,54.6547041 27.1299767,53.9860508 28.2110067,53.3384758 C28.8011022,52.9848272 29.1665757,52.5435472 28.8272075,51.6922145 C26.5913124,52.2872887 24.7647243,53.3523329 23.267374,55.0112802 L23.267374,55.0112802 Z M31.2853867,55.502719 C31.0356335,55.2876414 30.8591309,55.052266 30.778867,55.0815415 C30.4981382,55.1842011 30.2507228,55.3780052 29.9904495,55.5372641 C30.1500032,55.7002313 30.3397533,56.0183589 30.4628766,55.9943529 C30.7262669,55.942828 30.9553696,55.7142836 31.2853867,55.502719 L31.2853867,55.502719 Z" id="Fill-3" sketch:type="MSShapeGroup"></path>
                <path d="M5.73984276,54.2434804 C4.90155259,53.8129347 4.37379798,53.4274734 3.78448174,53.2604077 C1.99510334,52.7531601 1.28811867,51.3481293 0.793287843,49.7754472 C0.425086953,48.6048159 0.573925832,47.5265001 1.46091983,46.5570893 C3.50920774,44.3186814 5.5070385,42.0340181 7.57714572,39.7101256 C9.08793826,40.5520902 10.5548974,41.2141077 10.9501776,43.0465615 C10.1905928,44.6846256 7.93813845,44.1929917 7.03867627,45.8519391 C6.31084637,47.1947106 5.09071823,48.2697085 3.76987059,49.8435616 C4.78855972,49.9542232 5.31904175,50.0838162 5.84017264,50.0529793 C6.83645801,49.9944282 7.68078745,50.2305843 8.55843032,50.7579344 C10.7853638,52.0964121 11.1761633,53.9499443 9.52237635,55.9434135 C8.09847143,57.6599361 6.74859631,59.4451586 5.2317645,61.0746353 C4.51990944,61.8397028 3.49946698,62.3211879 2.6000048,62.9016243 C2.46246521,62.9902316 2.1488126,63.0025273 2.04127456,62.9080649 C1.4108523,62.3541716 0.42937289,61.8276022 0.309561489,61.1583633 C0.157995197,60.3119098 -0.117863248,59.212906 0.994142403,58.3955329 C2.58539366,57.2258774 3.98845334,55.7987923 5.73984276,54.2434804" id="Fill-4" sketch:type="MSShapeGroup"></path>
                <path d="M52.5765545,54.672855 C53.5504361,54.4753427 54.0331884,54.3775624 54.4880821,54.2852468 C55.9108181,55.843096 55.8519839,55.7902048 54.4358716,57.3664 C53.5260842,58.3791386 52.6385058,59.3694326 51.3492182,59.8659458 C49.4926285,60.5812448 48.4036111,59.8294489 48.4312748,57.7936277 C48.4460808,56.7034066 48.4694586,55.5520971 48.8144765,54.5395537 C49.7593306,51.7671599 50.7645775,49.0035487 51.9593797,46.3322531 C53.0092392,43.984745 54.3398276,41.7625362 55.5613195,39.4929011 C56.5055892,37.7387106 56.7574853,37.7156805 58.124699,39.1780914 C58.2984743,39.3636983 58.491731,39.5309593 58.654207,39.6861196 C58.7362242,40.6625565 58.5986846,41.482662 57.8256576,42.1727841 C56.8410611,43.0518311 56.6010487,44.3036533 56.3935704,45.5529382 C56.092386,47.3664604 54.6844559,48.6432644 54.0516958,50.2926484 C53.5492672,51.6020458 53.1510648,52.9514531 52.5765545,54.672855" id="Fill-5" sketch:type="MSShapeGroup"></path>
                <path d="M77.9713114,35.741338 C78.677322,36.4152609 79.2200774,36.9332428 79.7509491,37.4397097 C79.4573624,38.1468116 79.2078041,38.7977045 78.9159708,39.4288852 C78.7815482,39.7192986 78.5532247,40.2113228 78.3864628,40.203516 C76.8585265,40.1316934 77.0515885,41.6356755 76.3722676,42.320528 C75.9834163,42.71243 75.5869672,43.0973058 75.1817514,43.4720327 C74.9205041,43.7132632 74.8823203,44.4964815 74.8028356,44.8177318 C74.6804916,45.3111222 74.5696417,45.8417902 74.30255,46.2596498 C72.7319491,48.7162581 71.5595508,51.3319302 70.9269855,54.1882472 C70.8455527,54.5561432 70.6626212,54.9386769 70.4226087,55.2277241 C69.4715205,56.3733736 69.3026157,57.6326123 69.9252453,59.159039 C68.5771235,59.2414009 67.4824565,60.1809506 66.0606945,59.4096376 C66.1130998,59.0721882 66.3412285,58.602023 66.1947274,58.3799193 C65.2666274,56.9719609 66.3404492,55.7256035 66.4287006,54.4093751 C66.4372724,54.2830999 66.4579229,54.1039336 66.541109,54.0442115 C68.3139281,52.7666269 68.0162503,50.4800119 69.0877344,48.8165756 C70.1868822,47.1102019 70.7689903,45.0769179 71.6579325,43.2255326 C73.0987863,40.2247896 75.1983107,37.7664248 77.9713114,35.741338" id="Fill-6" sketch:type="MSShapeGroup"></path>
                <path d="M111.538959,23.7112372 C109.891796,24.1847202 109.954916,24.1382697 109.147407,23.0369238 C108.017089,21.4958593 107.798311,19.975678 108.588871,18.1810873 C109.016101,17.2108959 108.946163,16.032848 109.253776,14.9941518 C109.488139,14.2027363 109.364236,13.0036102 110.616704,12.9454494 C111.71176,12.8947051 112.162758,13.8972949 112.436084,14.6717305 C112.744476,15.5449224 112.820454,16.5851799 112.693435,17.5108726 C112.407056,19.5972428 111.933265,21.6578507 111.538959,23.7112372" id="Fill-7" sketch:type="MSShapeGroup"></path>
                <path d="M113.485554,0.179751827 C114.453006,1.53208669 116.930277,2.10627765 115.740541,4.57049759 C113.226449,4.78147666 112.468618,4.38996508 112.064571,2.67149077 C111.742346,1.30061474 112.121457,0.635669598 113.485554,0.179751827" id="Fill-8" sketch:type="MSShapeGroup"></path>
                <path d="M140.427923,57.4825263 C139.063632,57.9380537 138.690171,56.9161422 138.231576,56.0802279 C137.931365,55.5331656 137.74142,54.9257957 137.448223,54.3740493 C137.038332,53.6025412 137.254382,52.9247148 138.090335,52.7845825 C138.84953,52.6575267 139.637558,52.6093196 140.26233,53.2748503 C140.612608,53.6478207 141.031656,53.9557994 141.318813,54.2054222 C140.998927,55.3817134 140.732809,56.3606876 140.427923,57.4825263" id="Fill-9" sketch:type="MSShapeGroup"></path>
            </g>
        </g>
    </g>
</svg>